HIERARCHY
ROOT pelvis
{
  OFFSET 0 100 0
  CHANNELS 6 Xposition Yposition Zposition Zrotation Xrotation Yrotation
  JOINT pelvis_right_femur
  {
    OFFSET -10.78128 -3.44521 -0.5502486
    CHANNELS 3 Zrotation Xrotation Yrotation
    JOINT right_femur_tibia
    {
      OFFSET -0.8047443 -44.0398 -0.1307829
      CHANNELS 3 Zrotation Xrotation Yrotation
      JOINT right_tibia_foot
      {
        OFFSET 3.006224 -47.83518 -5
        CHANNELS 3 Zrotation Xrotation Yrotation
        End Site
        {
          OFFSET 0 -5 15
        }
      }
    }
  }
  JOINT pelvis_left_femur
  {
    OFFSET 10.78128 -3.44521 -0.5502486
    CHANNELS 3 Zrotation Xrotation Yrotation
    JOINT left_femur_tibia
    {
      OFFSET 0.8047443 -44.0398 -0.1307829
      CHANNELS 3 Zrotation Xrotation Yrotation
      JOINT left_tibia_foot
      {
        OFFSET -4.370144 -48.10324 -4.275266
        CHANNELS 3 Zrotation Xrotation Yrotation
        End Site
        {
          OFFSET 0 -5 15
        }
      }
    }
  }
  JOINT pelvis_spine1
  {
    OFFSET 0 6.468898 -3.129235
    CHANNELS 3 Zrotation Xrotation Yrotation
    JOINT spine1
    {
      OFFSET 0 23.15396 4.99043
      CHANNELS 3 Zrotation Xrotation Yrotation
      JOINT spine2
      {
        OFFSET 0 20.79997 -5.064912
        CHANNELS 3 Zrotation Xrotation Yrotation
        JOINT neck
        {
          OFFSET 0 14.38658 9.616178
          CHANNELS 3 Zrotation Xrotation Yrotation
          End Site
          {
            OFFSET 0 20 0
          }
        }
      }
      JOINT right_manubrium
      {
        OFFSET -5.722621 16.35077 3.967754
        CHANNELS 3 Zrotation Xrotation Yrotation
        JOINT right_clavicle
        {
          OFFSET -13.16364 1.694482 -4.693211
          CHANNELS 3 Zrotation Xrotation Yrotation
          JOINT right_humerus
          {
            OFFSET -28.5034 -0.3100689 -2.792744
            CHANNELS 3 Zrotation Xrotation Yrotation
            JOINT right_radius
            {
              OFFSET -25.15693 0.02248979 -1.271978
              CHANNELS 3 Zrotation Xrotation Yrotation
              End Site
              {
                OFFSET -15 0 0
              }
            }
          }
        }
      }
      JOINT left_manubrium
      {
        OFFSET 5.722621 16.35077 3.967754
        CHANNELS 3 Zrotation Xrotation Yrotation
        JOINT left_clavicle
        {
          OFFSET 13.16364 1.694482 -4.693211
          CHANNELS 3 Zrotation Xrotation Yrotation
          JOINT left_humerus
          {
            OFFSET 29.39168 -1.063119 -2.237045
            CHANNELS 3 Zrotation Xrotation Yrotation
            JOINT left_radius
            {
              OFFSET 24.59957 -0.9528479 0.9047498
              CHANNELS 3 Zrotation Xrotation Yrotation
              End Site
              {
                OFFSET 15 -0 -0
              }
            }
          }
        }
      }
    }
  }
}
MOTION
Frames: 9
Frame Time: 0.0416666666667
-947.3849 103.022 2617.585 -4.0084 -6.029994 -50.8642 -2.258205 18.61846 0.01223422 -0 38.46541 -0 -11.44008 6.668495 3.756718 -5.187192 -14.62803 -12.33622 -0 16.91555 -0 -1.980996 -6.589454 19.84933 -2.142285 -0.1137046 8.628969 -1.560344 10.70005 -3.389087 2.326392 21.49272 6.665982 1.914005 -15.33337 8.741322 3.492489 -20.66738 11.55006 79.55219 26.67915 -6.687289 -0 0 23.6515 -31.27915 18.91937 15.50174 3.611948 -15.43827 -3.813299 -91.2752 22.0589 24.40161 0 0 -12.93109 -4.102609 7.454289 18.51757
-951.6897 104.1629 2622.593 -4.60577 -7.03524 -50.27436 -2.645189 14.76727 -0.03709989 -0 47.14991 -0 -12.91036 13.33967 4.112573 -6.124493 -10.21999 -13.226 -0 18.0957 -0 -1.36253 -7.838188 20.10601 -2.198142 -0.1806013 8.028883 -1.30064 10.96448 -3.980103 2.243578 21.50836 6.658899 1.930706 -15.37284 8.637384 3.657114 -19.93996 11.50163 80.81776 27.36452 -8.720752 -0 0 21.83881 -30.72645 19.1313 15.10525 3.802719 -16.29302 -4.123978 -90.13855 22.02746 22.47771 0 0 -14.39304 -3.500267 7.576659 17.988
-955.5977 105.5353 2627.145 -5.510676 -7.476413 -49.52699 -2.157772 9.026657 -0.3103976 -0 53.98805 -0 -14.27273 16.66723 4.030887 -6.10826 -5.469496 -13.39823 -0 17.94265 -0 -0.4069541 -8.964851 20.09768 -2.273369 -0.2719881 7.314309 -0.9465751 11.25145 -4.71558 2.109465 21.49178 6.652608 1.978822 -15.48735 8.450841 3.85644 -19.12493 11.46527 82.31806 28.17607 -11.12666 -0 0 19.69404 -30.01432 19.26704 14.67041 4.02821 -17.32737 -4.442536 -88.82255 21.91168 20.23695 0 0 -16.14327 -2.791692 7.68728 17.33388
-959.1056 106.8939 2631.242 -6.477409 -7.405247 -48.80094 -1.253484 2.264155 -0.7969081 -0 56.95006 -0 -15.13464 16.39052 3.501358 -5.475224 -0.8537491 -13.26609 -0 16.62961 -0 0.5201612 -10.12458 19.7858 -2.352789 -0.3732651 6.513581 -0.5045626 11.50365 -5.548969 1.930196 21.44081 6.665496 2.05624 -15.68839 8.212803 4.067191 -18.25005 11.43776 83.98569 29.01828 -13.77369 -0 0 17.33598 -29.16016 19.31449 14.21841 4.278024 -18.45685 -4.745156 -87.42963 21.71357 17.80953 0 0 -18.08788 -2.043237 7.778213 16.59201
-962.2997 107.9591 2634.972 -7.138348 -6.997419 -48.19524 -0.3872684 -4.609084 -1.531339 -0 54.91551 -0 -15.29141 13.55705 2.674853 -4.693674 3.256037 -13.05069 -0 14.5733 -0 1.135218 -11.60001 19.10862 -2.421921 -0.4733689 5.663145 0.007831718 11.67299 -6.428505 1.717187 21.35317 6.711745 2.156447 -15.97578 7.95871 4.26196 -17.35183 11.41433 85.73348 29.79425 -16.51255 -0 0 14.90723 -28.19405 19.2738 13.76676 4.546205 -19.59753 -5.005967 -86.05657 21.45073 15.32978 0 0 -20.12796 -1.315649 7.841153 15.8013
-965.3204 108.4987 2638.455 -7.180881 -6.403621 -47.72298 0.1700921 -10.95508 -2.57043 -0 48.18716 -0 -14.75571 9.733858 1.813985 -4.17045 6.687853 -12.75451 -0 12.28173 -0 1.332381 -13.58342 18.06581 -2.469731 -0.5668757 4.808088 0.5614118 11.73351 -7.303122 1.485713 21.22559 6.796763 2.271185 -16.33564 7.718711 4.416162 -16.47668 11.39128 87.4585 30.4259 -19.18724 -0 0 12.55968 -27.16021 19.15526 13.32953 4.831144 -20.6793 -5.199888 -84.7819 21.148 12.92627 0 0 -22.16738 -0.6529967 7.86735 14.99816
-968.318 108.3948 2641.815 -6.502707 -5.695884 -47.35078 0.3674086 -16.46739 -3.867239 -0 38.30253 -0 -13.66395 6.273469 1.133862 -4.11026 9.448665 -12.31524 -0 10.25552 -0 1.17642 -16.00551 16.77529 -2.489858 -0.6511065 3.998358 1.118824 11.68632 -8.126097 1.253084 21.05723 6.915388 2.393105 -16.74296 7.511387 4.515735 -15.67316 11.36798 89.0534 30.86997 -21.64881 -0 0 10.4305 -26.11223 18.97438 12.91845 5.130376 -21.65117 -5.309256 -83.66153 20.83028 10.71483 0 0 -24.11376 -0.07891956 7.850893 14.21583
-971.42 107.6689 2645.161 -5.244568 -4.895456 -47.03679 0.3340265 -21.05803 -5.211527 -0 27.37483 -0 -12.2259 3.957233 0.7086559 -4.482074 11.64324 -11.72467 -0 8.944902 -0 0.8468463 -18.53213 15.44715 -2.481214 -0.7220582 3.282048 1.64088 11.55631 -8.856847 1.036598 20.85484 7.052939 2.516592 -17.1671 7.342386 4.561639 -14.98212 11.34721 90.42139 31.1222 -23.76959 -0 0 8.621678 -25.10509 18.74648 12.54403 5.433177 -22.47838 -5.331308 -82.7319 20.52065 8.795532 0 0 -25.8746 0.3984389 7.792147 13.48792
-974.7248 106.4637 2648.589 -3.712269 -4.0201 -46.74566 0.304058 -24.71037 -6.292029 -0 17.38627 -0 -10.69998 2.972801 0.4802899 -5.088969 13.39739 -11.03712 -0 8.742598 -0 0.5432373 -20.69608 14.29213 -2.448407 -0.7728761 2.698153 2.093561 11.38336 -9.462315 0.8512286 20.63581 7.188454 2.636734 -17.57757 7.206919 4.568869 -14.43046 11.33407 91.4893 31.20964 -25.45444 -0 0 7.191662 -24.18741 18.4825 12.21686 5.716153 -23.13641 -5.282044 -82.01531 20.24153 7.250609 0 0 -27.35573 0.7773621 7.698729 12.85155
